Coordinates
nRows=8
nColumns=38

# SIMM Motion File Header:
name Coordinates
datacolumns 38
datarows 8
otherdata 1
range 2.00400000000000000000 2.01100000000000010000

Units are S.I. units (second, meters, Newtons, ...)
Angles are in degrees.

endheader
time	pelvis_tilt	pelvis_list	pelvis_rotation	pelvis_tx	pelvis_ty	pelvis_tz	hip_flexion_r	hip_adduction_r	hip_rotation_r	knee_angle_r	ankle_angle_r	subtalar_angle_r	mtp_angle_r	hip_flexion_l	hip_adduction_l	hip_rotation_l	knee_angle_l	ankle_angle_l	subtalar_angle_l	mtp_angle_l	lumbar_extension	lumbar_bending	lumbar_rotation	arm_flex_r	arm_add_r	arm_rot_r	elbow_flex_r	pro_sup_r	wrist_flex_r	wrist_dev_r	arm_flex_l	arm_add_l	arm_rot_l	elbow_flex_l	pro_sup_l	wrist_flex_l	wrist_dev_l
      2.00400000000000000000	     -9.83880172803081090000	     -0.81248638500995041000	      5.11564622552762940000	      0.89770223313138986000	      0.99351630637089050000	     -0.33292008371706761000	     52.58260037956456800000	      4.42565217731314500000	     -2.20971173148362300000	   -114.16072080515588000000	      4.20315271244422740000	     -0.00000000000045361537	     -0.00000000000034371981	      6.74370659735869800000	      7.38546435858873100000	     10.13054457702909300000	    -35.20445478200723200000	     20.12432558053648200000	     -0.00000000000000487434	      0.00000000000011312989	     -2.11225022588674300000	     -0.15353633736928007000	    -10.61065605413793700000	    -32.91102071317389700000	    -15.86279754167381700000	     -8.17544482149096650000	    101.83686465593792000000	     97.10765842147604600000	      0.00000000000000605322	     -0.00000000000017812678	    -15.42945969161418400000	    -15.01249693561683400000	     -6.08976563935237180000	    125.64602591705619000000	     91.95007223062529500000	      0.00000000000003963120	     -0.00000000000001973853
      2.00499999999999990000	     -9.81240977036652670000	     -0.92619314430903754000	      4.99231125656862760000	      0.89813421020971307000	      0.99414248047832721000	     -0.33270958090119129000	     52.80957870403857200000	      4.61093792544761790000	     -2.14531852765307460000	   -113.71264326847520000000	      4.22986613101488820000	     -0.00000000000045478933	     -0.00000000000034466119	      6.21387028490297500000	      7.16822922645069930000	     10.06034536809476000000	    -34.80075854720798400000	     19.61872976909338500000	     -0.00000000000000413430	      0.00000000000011270610	     -2.05875651787700110000	     -0.01301816673388215600	    -10.64446223696085700000	    -33.08914637107324100000	    -15.89376255713903200000	     -8.18561746966887860000	    102.03458693804669000000	     97.14499845318533700000	      0.00000000000000607650	     -0.00000000000017859868	    -15.38268766991353000000	    -14.95699258153429600000	     -6.03044629424997240000	    125.97307605722227000000	     92.01511960634084600000	      0.00000000000003976398	     -0.00000000000001967577
      2.00600000000000020000	     -9.78590248280613120000	     -1.04111444823896000000	      4.86680330877003000000	      0.89857699843789540000	      0.99477648642762562000	     -0.33249430062260510000	     53.02941496396202600000	      4.79916792746988200000	     -2.08156412471694360000	   -113.25633265968914000000	      4.25785195889584940000	     -0.00000000000045595940	     -0.00000000000034560186	      5.68234394827188630000	      6.94954127313016290000	      9.98303337666211020000	    -34.38970303641559700000	     19.09297024966174000000	     -0.00000000000000337785	      0.00000000000011228510	     -2.00468057539585410000	      0.12882481851936733000	    -10.67461907584796100000	    -33.26896282340660300000	    -15.92344110436873800000	     -8.19880149668230550000	    102.23296686207784000000	     97.18832808655714900000	      0.00000000000000609971	     -0.00000000000017907023	    -15.33823480276556200000	    -14.89957674122694600000	     -5.96988287000393480000	    126.29861417744955000000	     92.08191207876991800000	      0.00000000000003989732	     -0.00000000000001960513
      2.00700000000000010000	     -9.75942934834907310000	     -1.15726896555552680000	      4.73921234526261250000	      0.89903031075585904000	      0.99541776474277588000	     -0.33227460578066720000	     53.24224400843284100000	      4.99017701116856220000	     -2.01847484714276160000	   -112.79189181001807000000	      4.28708055172226210000	     -0.00000000000045712913	     -0.00000000000034654209	      5.14943794362667000000	      6.72954498048448540000	      9.89844906674968780000	    -33.97153527382214100000	     18.54715043663167900000	     -0.00000000000000261109	      0.00000000000011183519	     -1.94988386142383980000	      0.27205286545429147000	    -10.70119522702895900000	    -33.45050749195925000000	    -15.95186914202415100000	     -8.21504896718850650000	    102.43189427366946000000	     97.23715675590621300000	      0.00000000000000612299	     -0.00000000000017954326	    -15.29611151521756600000	    -14.84022656774044600000	     -5.90795225940604230000	    126.62249118944389000000	     92.15049478904566600000	      0.00000000000004003214	     -0.00000000000001954356
      2.00800000000000000000	     -9.73313115701393980000	     -1.27466289043397430000	      4.60962756649519890000	      0.89949384114792041000	      0.99606576703065386000	     -0.33205085546414348000	     53.44819519478336600000	      5.18379039444303570000	     -1.95606828772021780000	   -112.31942584640602000000	      4.31751098331953200000	     -0.00000000000045830389	     -0.00000000000034748146	      4.61546229717539270000	      6.50839571918778500000	      9.80643454997955820000	    -33.54652560714735200000	     17.98140943868952800000	     -0.00000000000000188918	      0.00000000000011136408	     -1.89424123629864830000	      0.41671323844547303000	    -10.72426298249351000000	    -33.63381102737109500000	    -15.97908418350071500000	     -8.23440171997430430000	    102.63126884732171000000	     97.29098050095326800000	      0.00000000000000614663	     -0.00000000000018001640	    -15.25632576510155000000	    -14.77892583211780500000	     -5.84453927861938550000	    126.94456863484696000000	     92.22090982585743300000	      0.00000000000004016759	     -0.00000000000001950501
      2.00899999999999990000	     -9.70714132916421770000	     -1.39329042895117430000	      4.47814072077762230000	      0.89996726215418121000	      0.99671995462222829000	     -0.33182340720754755000	     53.64739386260234300000	      5.37982192671367440000	     -1.89435547658168260000	   -111.83904215242633000000	      4.34909166712352490000	     -0.00000000000045947658	     -0.00000000000034842209	      4.08072948837223140000	      6.28625894870683320000	      9.70683794347283780000	    -33.11497001210686600000	     17.39592437310334500000	     -0.00000000000000115052	      0.00000000000011085063	     -1.83763955476219550000	      0.56284008674437291000	    -10.74390160298330900000	    -33.81889679014612000000	    -16.00512467315626400000	     -8.25689125062750940000	    102.83099947010402000000	     97.34928537077374200000	      0.00000000000000617073	     -0.00000000000018049063	    -15.21888290099720600000	    -14.71566548632574400000	     -5.77953710204073000000	    127.26471848519837000000	     92.29319528759880600000	      0.00000000000004030200	     -0.00000000000001945763
      2.01000000000000020000	     -9.68158484784423480000	     -1.51313316425894560000	      4.34484725541353800000	      0.90045022385265527000	      0.99737980088306277000	     -0.33159261677293717000	     53.83996025457068400000	      5.57807352732011450000	     -1.83334111428721850000	   -111.35085045523789000000	      4.38176081055530630000	     -0.00000000000046064700	     -0.00000000000034936441	      3.54555369562734230000	      6.06331036145840320000	      9.59951589278768050000	    -32.67719054265451500000	     16.79091209426571800000	     -0.00000000000000039538	      0.00000000000011030532	     -1.77997909790278830000	      0.71045333707366454000	    -10.76019845203337900000	    -34.00577995631291400000	    -16.03002924791800200000	     -8.28253852399668130000	    103.03100368920380000000	     97.41155082584769800000	      0.00000000000000619560	     -0.00000000000018096435	    -15.18378507326613500000	    -14.65044442923016800000	     -5.71284769778885780000	    127.58282313514198000000	     92.36738414366888600000	      0.00000000000004043652	     -0.00000000000001938949
      2.01100000000000010000	     -9.65657701861561970000	     -1.63415949557498140000	      4.20984739842536900000	      0.90094235300078951000	      0.99804479372560717000	     -0.33135883800010507000	     54.02600825544596600000	      5.77833475664223070000	     -1.77302380122651690000	   -110.85496288010248000000	      4.41544692181346930000	     -0.00000000000046181241	     -0.00000000000035030668	      3.01024981075512210000	      5.83973592811034510000	      9.48433604710228910000	    -32.23353562817811000000	     16.16663131553767800000	      0.00000000000000036104	      0.00000000000010978476	     -1.72117516388194900000	      0.85955768122152598000	    -10.77325002552070600000	    -34.19446662678473800000	    -16.05383601888449300000	     -8.31135380347624060000	    103.23120716185706000000	     97.47725311196443000000	      0.00000000000000622073	     -0.00000000000018143851	    -15.15103062051457700000	    -14.58327023531027700000	     -5.64438223395662760000	    127.89877539796711000000	     92.44350311362228500000	      0.00000000000004057077	     -0.00000000000001931061
